Coordinates
version=1
nRows=5
nColumns=40
inDegrees=yes

Units are S.I. units (second, meters, Newtons, ...)
If the header above contains a line with 'inDegrees', this indicates whether rotational values are in degrees (yes) or radians (no).

endheader
time	pelvis_tilt	pelvis_list	pelvis_rotation	pelvis_tx	pelvis_ty	pelvis_tz	hip_flexion_r	hip_adduction_r	hip_rotation_r	knee_angle_r	knee_angle_r_beta	ankle_angle_r	subtalar_angle_r	mtp_angle_r	hip_flexion_l	hip_adduction_l	hip_rotation_l	knee_angle_l	knee_angle_l_beta	ankle_angle_l	subtalar_angle_l	mtp_angle_l	lumbar_extension	lumbar_bending	lumbar_rotation	arm_flex_r	arm_add_r	arm_rot_r	elbow_flex_r	pro_sup_r	wrist_flex_r	wrist_dev_r	arm_flex_l	arm_add_l	arm_rot_l	elbow_flex_l	pro_sup_l	wrist_flex_l	wrist_dev_l
     17.50000000	     38.47621281	    -10.72498463	    176.51957147	      0.35441578	      0.80125668	     -0.57863635	     84.74491920	     -7.93241551	      6.77531773	     54.09606640	      0.94415447	      9.01586264	      0.00000000	      0.00000000	     79.30656006	     -3.41983096	    -13.84144731	     54.02345037	      0.94288708	     13.96102247	      0.00000000	      0.00000000	    -31.65523331	     -7.78128295	     -3.77104906	     52.86205331	    -13.09909337	     37.72305572	     10.34153524	      6.78064223	      0.00000000	      0.00000000	     59.48347051	    -16.31463062	     40.09424563	     15.15738249	     87.62991819	      0.00000000	      0.00000000
     17.50500000	     38.49600342	    -10.72674352	    176.50406273	      0.35405824	      0.80277901	     -0.57856989	     84.52860948	     -8.01427199	      6.56708740	     53.73365696	      0.93782923	      8.92344948	      0.00000000	      0.00000000	     79.06007594	     -3.42675553	    -14.02446282	     53.61325387	      0.93572780	     13.87357869	      0.00000000	      0.00000000	    -31.44024642	     -7.76919496	     -3.73211238	     52.64957316	    -13.10342279	     37.81923662	     10.32354126	      6.73227007	      0.00000000	      0.00000000	     59.24506241	    -16.31630314	     40.16442682	     15.15477861	     87.63761406	      0.00000000	      0.00000000
     17.51000000	     38.52058182	    -10.72026011	    176.48856627	      0.35390257	      0.80494409	     -0.57850982	     84.16145006	     -8.01552698	      6.52443853	     53.06372568	      0.92613673	      8.63544637	      0.00000000	      0.00000000	     78.72035854	     -3.34015069	    -14.01956045	     52.94670301	      0.92409430	     13.62062327	      0.00000000	      0.00000000	    -31.31510902	     -7.74443731	     -3.70629983	     52.52252326	    -13.14451097	     37.95128828	     10.40329298	      6.66672235	      0.00000000	      0.00000000	     59.07641856	    -16.35535970	     40.22001548	     15.22505529	     87.62882235	      0.00000000	      0.00000000
     17.51500000	     38.47236630	    -10.70932701	    176.48576597	      0.35351491	      0.80618193	     -0.57852632	     83.96616232	     -8.03493245	      6.50168572	     52.91192479	      0.92348730	      8.55648206	      0.00000000	      0.00000000	     78.54036309	     -3.31914594	    -14.03210104	     52.81067854	      0.92172022	     13.52948043	      0.00000000	      0.00000000	    -31.12472985	     -7.73062958	     -3.69319267	     52.26441580	    -13.10931661	     37.96533343	     10.36759175	      6.64763819	      0.00000000	      0.00000000	     58.84077819	    -16.35879870	     40.24771695	     15.18391154	     87.63388623	      0.00000000	      0.00000000
     17.52000000	     38.52351135	    -10.67281383	    176.45392734	      0.35349530	      0.80872911	     -0.57847781	     83.52183142	     -8.04330960	      6.33622678	     52.03293666	      0.90814606	      8.16395906	      0.00000000	      0.00000000	     78.17033451	     -3.28434701	    -14.10537329	     52.00741435	      0.90770062	     13.06323063	      0.00000000	      0.00000000	    -31.02594972	     -7.68168555	     -3.64551384	     52.15829836	    -13.19174661	     37.97847330	     10.55856203	      6.59697048	      0.00000000	      0.00000000	     58.71767516	    -16.42543654	     40.23479569	     15.32032216	     87.62919989	      0.00000000	      0.00000000
